solid OpenSCAD_Model
  facet normal -1 0 0
    outer loop
      vertex 0 0 0
      vertex 0 0.1 3
      vertex 0 0.1 0
    endloop
  endfacet
  facet normal 0 0 -1
    outer loop
      vertex 0 0 0
      vertex 0 0.1 0
      vertex 5 35.1 0
    endloop
  endfacet
  facet normal -0.9899494936611665 0.1414213562373095 0
    outer loop
      vertex 0 0.1 0
      vertex 0 0.1 3
      vertex 5 35.1 0
    endloop
  endfacet
  facet normal 0 -1 0
    outer loop
      vertex 0 0 0
      vertex 30 0 0
      vertex 0 0 3
    endloop
  endfacet
  facet normal -1 0 0
    outer loop
      vertex 0 0 0
      vertex 0 0 3
      vertex 0 0.1 3
    endloop
  endfacet
  facet normal 0 0 1
    outer loop
      vertex 0 0 3
      vertex 5 35.1 3
      vertex 0 0.1 3
    endloop
  endfacet
  facet normal 0 0 1
    outer loop
      vertex 0 0 3
      vertex 30 0.1 3
      vertex 5 35.1 3
    endloop
  endfacet
  facet normal 0 0 -1
    outer loop
      vertex 0 0 0
      vertex 5 35.1 0
      vertex 17 35.1 0
    endloop
  endfacet
  facet normal 0 1 0
    outer loop
      vertex 5 35.1 0
      vertex 5 35.1 3
      vertex 17 35.1 0
    endloop
  endfacet
  facet normal -0.9899494936611665 0.1414213562373095 0
    outer loop
      vertex 0 0.1 3
      vertex 5 35.1 3
      vertex 5 35.1 0
    endloop
  endfacet
  facet normal 0 1 0
    outer loop
      vertex 5 35.1 3
      vertex 17 35.1 3
      vertex 17 35.1 0
    endloop
  endfacet
  facet normal 0 0 -1
    outer loop
      vertex 0 0 0
      vertex 17 35.1 0
      vertex 30 0 0
    endloop
  endfacet
  facet normal 1 0 0
    outer loop
      vertex 30 0 0
      vertex 30 0.1 0
      vertex 30 0.1 3
    endloop
  endfacet
  facet normal 0 0 -1
    outer loop
      vertex 30 0 0
      vertex 17 35.1 0
      vertex 30 0.1 0
    endloop
  endfacet
  facet normal 0.9374252720097653 0.3481865296036271 0
    outer loop
      vertex 30 0.1 0
      vertex 17 35.1 0
      vertex 30 0.1 3
    endloop
  endfacet
  facet normal 0 -1 0
    outer loop
      vertex 0 0 3
      vertex 30 0 0
      vertex 30 0 3
    endloop
  endfacet
  facet normal 0 0 1
    outer loop
      vertex 0 0 3
      vertex 30 0 3
      vertex 30 0.1 3
    endloop
  endfacet
  facet normal 1 0 0
    outer loop
      vertex 30 0 0
      vertex 30 0.1 3
      vertex 30 0 3
    endloop
  endfacet
  facet normal 0.9374252720097653 0.3481865296036271 0
    outer loop
      vertex 30 0.1 3
      vertex 17 35.1 0
      vertex 17 35.1 3
    endloop
  endfacet
  facet normal 0 0 1
    outer loop
      vertex 5 35.1 3
      vertex 30 0.1 3
      vertex 17 35.1 3
    endloop
  endfacet
endsolid OpenSCAD_Model
